<mxfile host="app.diagrams.net" agent="Mozilla/5.0 (Windows NT 10.0; Win64; x64) AppleWebKit/537.36 (KHTML, like Gecko) Chrome/133.0.0.0 Safari/537.36" version="26.0.12">
  <diagram name="Page-1" id="gPv8w3qUyLJzd9PcmpHc">
    <mxGraphModel dx="2068" dy="904" grid="1" gridSize="10" guides="1" tooltips="1" connect="1" arrows="1" fold="1" page="1" pageScale="1" pageWidth="850" pageHeight="1100" math="0" shadow="0">
      <root>
        <mxCell id="0" />
        <mxCell id="1" parent="0" />
        <mxCell id="ZuQw7RRGqlAF1g3oXXfl-1" value="" style="rounded=1;whiteSpace=wrap;html=1;fillColor=light-dark(#18F2FF,var(--ge-dark-color, #121212));" vertex="1" parent="1">
          <mxGeometry x="40" y="160" width="140" height="80" as="geometry" />
        </mxCell>
        <mxCell id="ZuQw7RRGqlAF1g3oXXfl-2" value="&lt;b&gt;Document Loading&lt;/b&gt;" style="text;html=1;align=center;verticalAlign=middle;whiteSpace=wrap;rounded=0;" vertex="1" parent="1">
          <mxGeometry x="80" y="185" width="60" height="30" as="geometry" />
        </mxCell>
        <mxCell id="ZuQw7RRGqlAF1g3oXXfl-3" value="" style="rounded=1;whiteSpace=wrap;html=1;fillColor=light-dark(#FFFF99,var(--ge-dark-color, #121212));" vertex="1" parent="1">
          <mxGeometry x="280" y="160" width="150" height="80" as="geometry" />
        </mxCell>
        <mxCell id="ZuQw7RRGqlAF1g3oXXfl-4" value="" style="endArrow=classic;html=1;rounded=0;exitX=1.016;exitY=0.507;exitDx=0;exitDy=0;exitPerimeter=0;" edge="1" parent="1">
          <mxGeometry width="50" height="50" relative="1" as="geometry">
            <mxPoint x="182.24" y="200.27999999999994" as="sourcePoint" />
            <mxPoint x="280" y="200" as="targetPoint" />
          </mxGeometry>
        </mxCell>
        <mxCell id="ZuQw7RRGqlAF1g3oXXfl-5" value="&lt;b&gt;Splitting&amp;nbsp;&lt;/b&gt;" style="text;html=1;align=center;verticalAlign=middle;whiteSpace=wrap;rounded=0;" vertex="1" parent="1">
          <mxGeometry x="320" y="185" width="60" height="30" as="geometry" />
        </mxCell>
        <mxCell id="ZuQw7RRGqlAF1g3oXXfl-6" value="" style="rounded=1;whiteSpace=wrap;html=1;fillColor=light-dark(#FFC1BA,var(--ge-dark-color, #121212));" vertex="1" parent="1">
          <mxGeometry x="530" y="160" width="150" height="80" as="geometry" />
        </mxCell>
        <mxCell id="ZuQw7RRGqlAF1g3oXXfl-7" value="" style="endArrow=classic;html=1;rounded=0;exitX=1.016;exitY=0.507;exitDx=0;exitDy=0;exitPerimeter=0;" edge="1" parent="1">
          <mxGeometry width="50" height="50" relative="1" as="geometry">
            <mxPoint x="430" y="200.09999999999994" as="sourcePoint" />
            <mxPoint x="527.76" y="199.82" as="targetPoint" />
          </mxGeometry>
        </mxCell>
        <mxCell id="ZuQw7RRGqlAF1g3oXXfl-8" value="&lt;b&gt;Storage&lt;/b&gt;" style="text;html=1;align=center;verticalAlign=middle;whiteSpace=wrap;rounded=0;" vertex="1" parent="1">
          <mxGeometry x="580" y="185" width="55" height="30" as="geometry" />
        </mxCell>
        <mxCell id="ZuQw7RRGqlAF1g3oXXfl-9" value="" style="rounded=1;whiteSpace=wrap;html=1;fillColor=light-dark(#FFCCFF,var(--ge-dark-color, #121212));" vertex="1" parent="1">
          <mxGeometry x="780" y="160" width="140" height="80" as="geometry" />
        </mxCell>
        <mxCell id="ZuQw7RRGqlAF1g3oXXfl-12" value="&lt;b&gt;Retrieval&lt;/b&gt;" style="text;html=1;align=center;verticalAlign=middle;whiteSpace=wrap;rounded=0;" vertex="1" parent="1">
          <mxGeometry x="810" y="185" width="70" height="30" as="geometry" />
        </mxCell>
        <mxCell id="ZuQw7RRGqlAF1g3oXXfl-13" value="" style="ellipse;whiteSpace=wrap;html=1;fillColor=light-dark(#CCFF99,var(--ge-dark-color, #121212));" vertex="1" parent="1">
          <mxGeometry x="680" y="285" width="100" height="70" as="geometry" />
        </mxCell>
        <mxCell id="ZuQw7RRGqlAF1g3oXXfl-14" value="&lt;b&gt;Query&lt;/b&gt;" style="text;html=1;align=center;verticalAlign=middle;whiteSpace=wrap;rounded=0;" vertex="1" parent="1">
          <mxGeometry x="700" y="300" width="60" height="40" as="geometry" />
        </mxCell>
        <mxCell id="ZuQw7RRGqlAF1g3oXXfl-15" value="" style="endArrow=classic;html=1;rounded=0;" edge="1" parent="1">
          <mxGeometry width="50" height="50" relative="1" as="geometry">
            <mxPoint x="730" y="280" as="sourcePoint" />
            <mxPoint x="730" y="210" as="targetPoint" />
          </mxGeometry>
        </mxCell>
        <mxCell id="ZuQw7RRGqlAF1g3oXXfl-16" value="" style="endArrow=classic;startArrow=classic;html=1;rounded=0;exitX=1;exitY=0.5;exitDx=0;exitDy=0;entryX=0;entryY=0.5;entryDx=0;entryDy=0;" edge="1" parent="1" source="ZuQw7RRGqlAF1g3oXXfl-6" target="ZuQw7RRGqlAF1g3oXXfl-9">
          <mxGeometry width="50" height="50" relative="1" as="geometry">
            <mxPoint x="710" y="215" as="sourcePoint" />
            <mxPoint x="760" y="165" as="targetPoint" />
          </mxGeometry>
        </mxCell>
        <mxCell id="ZuQw7RRGqlAF1g3oXXfl-18" value="" style="endArrow=classic;html=1;rounded=0;" edge="1" parent="1">
          <mxGeometry width="50" height="50" relative="1" as="geometry">
            <mxPoint x="920" y="200" as="sourcePoint" />
            <mxPoint x="1000" y="200" as="targetPoint" />
          </mxGeometry>
        </mxCell>
        <mxCell id="ZuQw7RRGqlAF1g3oXXfl-20" value="" style="shape=note;whiteSpace=wrap;html=1;backgroundOutline=1;darkOpacity=0.05;" vertex="1" parent="1">
          <mxGeometry x="1010" y="155" width="70" height="90" as="geometry" />
        </mxCell>
        <mxCell id="ZuQw7RRGqlAF1g3oXXfl-21" value="&lt;b&gt;Prompt&lt;/b&gt;" style="text;html=1;align=center;verticalAlign=middle;whiteSpace=wrap;rounded=0;" vertex="1" parent="1">
          <mxGeometry x="1015" y="190" width="60" height="30" as="geometry" />
        </mxCell>
        <mxCell id="ZuQw7RRGqlAF1g3oXXfl-22" value="" style="endArrow=classic;html=1;rounded=0;" edge="1" parent="1">
          <mxGeometry width="50" height="50" relative="1" as="geometry">
            <mxPoint x="1080" y="200" as="sourcePoint" />
            <mxPoint x="1160" y="200" as="targetPoint" />
          </mxGeometry>
        </mxCell>
        <mxCell id="ZuQw7RRGqlAF1g3oXXfl-23" value="" style="rounded=1;whiteSpace=wrap;html=1;fillColor=light-dark(#FF66B3,var(--ge-dark-color, #121212));" vertex="1" parent="1">
          <mxGeometry x="1160" y="160" width="130" height="80" as="geometry" />
        </mxCell>
        <mxCell id="ZuQw7RRGqlAF1g3oXXfl-24" value="&lt;span style=&quot;font-size: 18px;&quot;&gt;&lt;b&gt;LLM&lt;/b&gt;&lt;/span&gt;" style="text;html=1;align=center;verticalAlign=middle;whiteSpace=wrap;rounded=0;" vertex="1" parent="1">
          <mxGeometry x="1200" y="185" width="60" height="30" as="geometry" />
        </mxCell>
        <mxCell id="ZuQw7RRGqlAF1g3oXXfl-25" value="" style="endArrow=classic;html=1;rounded=0;" edge="1" parent="1" target="ZuQw7RRGqlAF1g3oXXfl-26">
          <mxGeometry width="50" height="50" relative="1" as="geometry">
            <mxPoint x="1290" y="200" as="sourcePoint" />
            <mxPoint x="1350" y="200" as="targetPoint" />
          </mxGeometry>
        </mxCell>
        <mxCell id="ZuQw7RRGqlAF1g3oXXfl-26" value="&lt;span style=&quot;font-size: 14px; background-color: light-dark(rgb(255, 51, 51), rgb(255, 255, 255));&quot;&gt;&lt;b&gt;&amp;lt;Answer&amp;gt;&lt;/b&gt;&lt;/span&gt;" style="text;html=1;align=center;verticalAlign=middle;whiteSpace=wrap;rounded=0;" vertex="1" parent="1">
          <mxGeometry x="1340" y="184.99999999999994" width="60" height="30" as="geometry" />
        </mxCell>
      </root>
    </mxGraphModel>
  </diagram>
</mxfile>
